<svg width="31" height="37" viewBox="0 0 31 37" fill="none" xmlns="http://www.w3.org/2000/svg">
<path d="M10.8734 32.9031H10.6602V36.3172C11.2571 36.5305 11.8967 36.7012 12.5364 36.8293V32.8177C11.982 32.9031 11.4277 32.9031 10.8734 32.9031ZM23.154 10.0288V22.4902C23.154 22.4902 23.154 22.8316 23.0687 22.9596C23.0687 23.8558 22.9834 24.7093 22.6849 25.4775H22.7276C22.7276 25.4775 22.7276 25.5202 22.6849 25.5628C22.7276 25.5628 22.6849 25.6909 22.6423 25.7335C22.557 26.1603 22.3864 26.5871 22.2585 26.9711C22.2585 26.9711 22.2301 26.9996 22.1732 27.0565C22.1732 27.0565 22.1732 27.1845 22.0879 27.2272C21.8321 27.782 21.491 28.3368 21.1072 28.8062C21.0646 29.0196 20.894 29.1476 20.7234 29.2756C20.5529 29.5317 20.297 29.7877 20.0412 30.0438C19.3589 30.5986 18.634 31.1107 17.8238 31.5375V37C18.7193 36.8293 19.5721 36.6159 20.3397 36.3172C20.7661 36.1891 21.1925 36.0184 21.6189 35.8477C24.6038 34.6101 26.949 32.9031 28.612 30.5986C30.1897 28.3368 30.9999 25.6909 30.9999 22.5755V10.0288H23.154Z" fill="#F7941D"/>
<path d="M10.9587 30.0438C10.6602 29.7877 10.447 29.5317 10.2765 29.2756C10.1059 29.1476 9.93535 29.0196 9.89271 28.8489C9.4663 28.3368 9.12517 27.782 8.91197 27.2272C8.82668 27.2272 8.82668 27.0992 8.82668 27.0565C8.82668 27.0565 8.79826 27.028 8.7414 26.9711C8.57084 26.5871 8.40028 26.1603 8.35763 25.7335C8.31499 25.6909 8.22971 25.6055 8.31499 25.5628H8.22971C8.22971 25.5628 8.22971 25.5202 8.31499 25.4775C8.01651 24.7093 7.88858 23.8558 7.88858 22.9596C7.84594 22.8316 7.84594 22.7035 7.84594 22.5328V10.0288H0V22.5755C0 25.6909 0.810179 28.3368 2.3879 30.5986C4.05089 32.9031 6.35351 34.6101 9.38102 35.8477C9.80743 36.0184 10.2338 36.1891 10.6602 36.3172C11.2572 36.5305 11.8968 36.7012 12.5365 36.8293V31.1534C11.9821 30.8546 11.4278 30.4706 10.9587 30.0438ZM20.1265 32.9031C19.3164 32.9031 18.5488 32.8604 17.8239 32.7751V37C18.7194 36.8293 19.5722 36.6159 20.3398 36.3172V32.9031H20.1265Z" fill="#F7941D"/>
<path d="M4.30644 7.68166C6.42594 7.68166 8.14413 5.96206 8.14413 3.84083C8.14413 1.7196 6.42594 0 4.30644 0C2.18694 0 0.46875 1.7196 0.46875 3.84083C0.46875 5.96206 2.18694 7.68166 4.30644 7.68166Z" fill="#414042"/>
<path d="M27.1619 7.68166C29.2814 7.68166 30.9996 5.96206 30.9996 3.84083C30.9996 1.7196 29.2814 0 27.1619 0C25.0424 0 23.3242 1.7196 23.3242 3.84083C23.3242 5.96206 25.0424 7.68166 27.1619 7.68166Z" fill="#414042"/>
</svg>
